<!-- sample rectangle -->
<svg class="icon icon--medium icon--type-box" stroke-width="1" aria-hidden="true" focusable="false" role="presentation" xmlns="http://www.w3.org/2000/svg" viewBox="0 0 16 16"><path d="M14.41 3.37L8.27 1.41a1 1 0 00-.61 0L1.52 3.37a1 1 0 00-.7.95v7.86c0 .41.25.78.63.93l6.14 2.46c.24.1.5.1.75 0l6.14-2.46a1 1 0 00.62-.93V4.32a1 1 0 00-.69-.95zM7.96 2.36l6.05 1.93-2.7.9L5.35 3.2l2.63-.84zm-.46 12.1l-5.68-2.28V5.3L7.5 7.2v7.26zM8 6.3L1.96 4.28l2.58-.82 5.99 2L8 6.3zm6.1 5.89l-5.6 2.24V7.19l5.6-1.87v6.87z"></path></svg>