<?xml version="1.0" standalone="no"?>
<!DOCTYPE svg PUBLIC "-//W3C//DTD SVG 20010904//EN"
 "http://www.w3.org/TR/2001/REC-SVG-20010904/DTD/svg10.dtd">
<svg version="1.0" xmlns="http://www.w3.org/2000/svg"
 width="505.000000pt" height="763.000000pt" viewBox="0 0 505.000000 763.000000"
 preserveAspectRatio="xMidYMid meet">

<g transform="translate(0.000000,763.000000) scale(0.100000,-0.100000)"
fill="#000000" stroke="none">
<path d="M2160 6953 l0 -543 -352 0 c-194 0 -384 -5 -423 -10 -318 -45 -613
-196 -840 -431 -194 -201 -322 -442 -382 -720 -26 -121 -26 -438 1 -564 42
-199 137 -416 249 -569 68 -93 213 -240 303 -308 129 -97 310 -186 474 -234
149 -43 273 -54 637 -54 l333 0 0 -915 0 -915 -880 0 -880 0 0 -265 0 -265
880 0 880 0 0 -540 0 -540 265 0 265 0 2 537 3 538 385 6 c212 4 408 11 435
17 307 63 547 187 759 391 233 226 378 511 426 840 18 118 7 390 -19 506 -112
501 -483 911 -961 1063 -199 64 -211 65 -638 69 l-392 4 2 912 3 912 708 3
707 2 0 265 0 265 -707 2 -708 3 -3 538 c-2 502 -3 537 -20 538 -9 1 -128 2
-264 3 l-248 1 0 -542z m0 -1989 l0 -916 -352 4 c-344 5 -356 6 -451 32 -386
104 -650 422 -683 818 -11 145 27 342 94 473 131 261 398 453 687 494 33 5
205 9 383 10 l322 1 0 -916z m1322 -1472 c175 -48 305 -121 427 -242 150 -149
234 -321 262 -535 36 -280 -56 -547 -260 -752 -122 -124 -239 -191 -421 -240
-93 -26 -101 -26 -445 -27 l-350 -1 -3 914 -2 913 357 -4 c324 -5 365 -7 435
-26z"/>
</g>
</svg>
