<?xml version="1.0" standalone="no"?>
<!DOCTYPE svg PUBLIC "-//W3C//DTD SVG 20010904//EN"
 "http://www.w3.org/TR/2001/REC-SVG-20010904/DTD/svg10.dtd">
<svg version="1.0" xmlns="http://www.w3.org/2000/svg"
 width="855.000000pt" height="821.000000pt" viewBox="0 0 855.000000 821.000000"
 preserveAspectRatio="xMidYMid meet">

<g transform="translate(0.000000,821.000000) scale(0.100000,-0.100000)"
fill="#000000" stroke="none">
<path d="M2575 7953 c-116 -11 -291 -65 -410 -126 -207 -107 -375 -273 -484
-478 -184 -345 -186 -742 -6 -1084 25 -47 45 -87 45 -88 0 -1 -281 -2 -625 -2
l-625 0 0 -1160 0 -1161 323 1 322 0 3 -1802 2 -1803 3195 0 3195 0 0 1799 0
1799 33 5 c17 2 151 4 297 3 146 -2 274 1 285 5 20 7 20 14 20 1152 0 630 -4
1149 -8 1154 -5 4 -282 8 -617 8 -335 0 -611 3 -614 6 -3 3 14 46 38 95 99
198 121 297 121 529 -1 155 -4 192 -24 270 -109 417 -402 717 -824 842 -122
36 -122 36 -317 36 -175 0 -206 -3 -300 -26 -134 -33 -232 -68 -345 -125 -357
-178 -664 -512 -907 -988 l-42 -82 -54 107 c-95 186 -228 388 -351 531 -164
191 -351 339 -556 443 -73 37 -281 105 -371 122 -76 15 -319 26 -399 18z m360
-557 c90 -26 200 -73 263 -113 288 -183 521 -504 706 -975 25 -64 46 -119 46
-122 0 -3 -298 -6 -662 -6 -734 0 -726 -1 -863 66 -115 56 -209 145 -276 261
-76 131 -94 329 -44 487 55 177 210 331 405 402 92 34 306 34 425 0z m3154 3
c115 -36 181 -76 266 -163 99 -101 149 -193 171 -316 57 -315 -108 -593 -423
-713 -57 -21 -66 -22 -751 -25 l-692 -3 26 68 c14 37 31 82 36 98 22 63 148
318 199 402 124 205 267 371 414 481 144 108 330 180 490 191 122 8 188 3 264
-20z m-2049 -2384 l0 -625 -1520 0 -1520 0 0 625 0 625 1520 0 1520 0 0 -625z
m3570 0 l0 -625 -1520 0 -1520 0 0 625 0 625 1520 0 1520 0 0 -625z m-3597
-1164 l27 -1 -2 -1532 -3 -1533 -1192 -3 -1193 -2 0 1533 c0 844 2 1536 4
1538 4 3 2282 4 2359 0z m2950 0 c4 0 7 -692 7 -1536 l0 -1535 -1197 2 -1198
3 -3 1529 c-1 920 2 1532 7 1535 7 5 2357 7 2384 2z"/>
</g>
</svg>
